<?xml version="1.0" encoding="UTF-8"?><svg xmlns="http://www.w3.org/2000/svg" xmlns:xlink="http://www.w3.org/1999/xlink" version="1.1" id="Layer_1" x="0px" y="0px" viewBox="0 0 64 65" xml:space="preserve"><style type="text/css">.st0{fill:#FFDEAF;} .st1{fill:none;stroke:#F39848;stroke-width:1.5;stroke-linecap:round;stroke-linejoin:round;stroke-miterlimit:10;} .st2{fill:#F39848;} .st3{fill:#FFFFFF;} .st4{fill:#CF481F;} .st5{fill:#F16723;} .st6{fill:#EF5224;} .st7{fill:#FFE4B8;} .st8{fill:#E7D0A8;} .st9{fill:none;stroke:#231F20;stroke-width:1.5;stroke-linecap:round;stroke-miterlimit:10;} .st10{fill:none;stroke:#FFFFFF;stroke-width:1.5;stroke-linecap:round;stroke-miterlimit:10;} .st11{fill:#D99816;} .st12{fill:#FBD108;} .st13{fill:#F9AE19;} .st14{fill:#3768A4;} .st15{fill:#4D9AD4;} .st16{fill:#3F77BB;} .st17{fill:none;stroke:#FBD108;stroke-linecap:round;stroke-linejoin:round;stroke-miterlimit:10;} .st18{fill:none;stroke:#F16723;stroke-linecap:round;stroke-linejoin:round;stroke-miterlimit:10;} .st19{fill:none;stroke:#4D9AD4;stroke-linecap:round;stroke-linejoin:round;stroke-miterlimit:10;} .st20{fill:#231F20;} .st21{fill:#5BB947;} .st22{fill:#80C244;} .st23{fill:#ED3C7A;} .st24{fill:#EF5E87;} .st25{fill:#CE316A;} .st26{fill:none;stroke:#231F20;stroke-width:1.5;stroke-linecap:round;stroke-linejoin:round;stroke-miterlimit:10;} .st27{fill:#4EA23E;} .st28{fill:none;stroke:#4D9AD4;stroke-width:1.5;stroke-linecap:round;stroke-linejoin:round;stroke-miterlimit:10;} .st29{fill:#FAFDFF;} .st30{fill:#E7B994;} .st31{fill:#FDD3AF;} .st32{fill:none;stroke:#4D4D4F;stroke-width:1.5;stroke-linecap:round;stroke-linejoin:round;stroke-miterlimit:10;} .st33{fill:#93C84E;} .st34{fill:#7FAF43;} .st35{fill:none;stroke:#FFFFFF;stroke-width:1.5;stroke-linecap:round;stroke-linejoin:round;stroke-miterlimit:10;} .st36{fill:#4D4D4F;} .st37{fill:#D04A25;} .st38{fill:#989899;} .st39{fill:#4D4E4E;} .st40{fill:#DF9C2A;} .st41{fill:#F8B233;} .st42{fill:#F0562C;} .st43{fill:#986422;} .st44{fill:#B1742B;} .st45{fill:#CBCBCA;} .st46{fill:none;stroke:#CBCBCA;stroke-width:1.5;stroke-linecap:round;stroke-linejoin:round;stroke-miterlimit:10;} .st47{fill:#F1F1F2;} .st48{fill:#FFFFFF;stroke:#4D4D4F;stroke-width:1.5;stroke-linecap:round;stroke-linejoin:round;stroke-miterlimit:10;} .st49{fill:#7F3A95;} .st50{fill:#8F4D9D;} .st51{fill:#FBD20A;} .st52{fill:#4E9BD4;} .st53{fill:#3769A5;} .st54{fill:#CF316A;} .st55{fill:#F05F88;} .st56{fill:#EE3C7A;} .st57{fill:#4077BB;} .st58{fill:#E7D0A9;} .st59{fill:none;stroke:#292664;stroke-linecap:round;stroke-linejoin:round;stroke-miterlimit:10;} .st60{fill:#8FD2CB;} .st61{fill:#FCE0D3;} .st62{fill:#95685C;} .st63{fill:none;stroke:#616A80;stroke-miterlimit:10;} .st64{fill:none;stroke:#1A3E6F;stroke-linecap:round;stroke-linejoin:round;stroke-miterlimit:10;} .st65{fill:#F48B8C;} .st66{fill:#292664;} .st67{fill:#CFA99B;} .st68{fill:#FAE1D0;} .st69{fill:#D19F8C;} .st70{fill:#1A3E6F;} .st71{fill:#F0D5C9;} .st72{opacity:0.37;} .st73{opacity:0.37;fill:#D19F8C;} .st74{fill:#E8E5F2;} .st75{fill:#A89BCA;} .st76{fill:#FFCF4B;} .st77{fill:#0B0C0C;} .st78{opacity:0.55;fill:#D19F8C;} .st79{fill:#A3D4A7;} .st80{fill:#F16A6A;} .st81{opacity:0.46;fill:#292664;} .st82{opacity:0.4;fill:#1A3E6F;} .st83{opacity:0.64;} .st84{opacity:0.34;fill:#FFFFFF;} .st85{fill:#1D1C1A;} .st86{fill:#333333;} .st87{opacity:0.43;fill:#292664;} .st88{clip-path:url(#SVGID_2_);} .st89{clip-path:url(#SVGID_4_);} .st90{opacity:0.55;fill:#99746A;} .st91{fill:none;stroke:#145182;stroke-linecap:round;stroke-linejoin:round;stroke-miterlimit:10;} .st92{opacity:0.36;} .st93{fill:none;stroke:#145182;stroke-miterlimit:10;} .st94{fill:#145182;} .st95{fill:#C9E7F8;} .st96{fill:#F69FA0;} .st97{fill:#AD8D7D;} .st98{fill:#F4FAFD;} .st99{fill:#FBEE99;} .st100{fill:#DFEDF9;} .st101{opacity:0.36;fill:#145182;} .st102{fill:#F6D7D3;} .st103{fill:#F06164;} .st104{fill:#ED2239;} .st105{clip-path:url(#SVGID_6_);fill:#FFFFFF;} .st106{fill:#F9AF8C;} .st107{fill:#DBE0E2;} .st108{fill:none;stroke:#838B98;stroke-linecap:round;stroke-linejoin:round;stroke-miterlimit:10;} .st109{opacity:0.76;} .st110{opacity:0.76;fill:none;stroke:#DBE0E2;stroke-miterlimit:10;} .st111{opacity:0.76;fill:#DBE0E2;} .st112{fill:#F5F6F8;} .st113{fill:#E3E6E9;} .st114{fill:#838B98;} .st115{fill:#FBEC91;} .st116{clip-path:url(#SVGID_8_);fill:#FFFFFF;} .st117{fill:#F3E18F;} .st118{clip-path:url(#SVGID_10_);fill:#FFFFFF;} .st119{clip-path:url(#SVGID_12_);fill:#FFFFFF;} .st120{opacity:0.42;fill:none;stroke:#145182;stroke-linecap:round;stroke-miterlimit:10;} .st121{clip-path:url(#SVGID_14_);fill:#FFFFFF;} .st122{clip-path:url(#SVGID_16_);fill:#FFFFFF;}</style><path class="st3" d="M29.8 44.7l-7.6 2.9c-2.1.8-3.4 2.8-3.4 5v9.5h27.8v-9.5c0-2.2-1.4-4.2-3.4-5l-7.6-2.9" fill="#FFF"/><path class="st66" d="M35 62.1V48.5l.9.7v-4.5l7.4 2.9c2.1.8 3.4 2.8 3.4 5v9.5H35z" fill="#292664"/><path class="st66" d="M30.6 62.1V48.5l-.9.7v-4.5l-7.4 2.9c-2.1.8-3.4 2.8-3.4 5v9.5h11.7z" fill="#292664"/><path class="st59" d="M46.7 62.1v-9.5c0-2.2-1.4-4.2-3.4-5l-7.6-2.9" fill="none" stroke="#292664" stroke-linecap="round" stroke-linejoin="round" stroke-miterlimit="10"/><path class="st59" d="M29.8 44.7l-7.6 2.9c-2.1.8-3.4 2.8-3.4 5v9.5" fill="none" stroke="#292664" stroke-linecap="round" stroke-linejoin="round" stroke-miterlimit="10"/><path class="st69" d="M32.7 46.7c-1.6 0-2.9-1.3-2.9-2.9v-4.6c0-.6.5-1 1-1h3.7c.6 0 1 .5 1 1v4.6c.1 1.6-1.2 2.9-2.8 2.9z" fill="#D19F8C"/><path class="st59" d="M32.7 46.7c-1.6 0-2.9-1.3-2.9-2.9v-4.6c0-.6.5-1 1-1h3.7c.6 0 1 .5 1 1v4.6c.1 1.6-1.2 2.9-2.8 2.9z" fill="none" stroke="#292664" stroke-linecap="round" stroke-linejoin="round" stroke-miterlimit="10"/><path class="st67" d="M29.7 42.6s2.8.9 6 0l.1-.4h-6.1v.4" fill="#CFA99B"/><circle class="st69" cx="17.7" cy="27.6" r="3" fill="#D19F8C"/><circle class="st69" cx="47.8" cy="27.6" r="3" fill="#D19F8C"/><path class="st69" d="M46.2 8.9c-2.3-3.8-6.7-6.4-11.6-6.4h-3.7c-5.3 0-9.9 3-12.1 7.2-.8.5-1 1.6-1 2.8-.2.9-.3 1.9-.3 2.9v6.9l.7 8.4c0 6.6 6 11.9 13.4 11.9H34c5.1 0 9.5-2.5 11.7-6.2.1.1.2 0 .3-.2.1-.2.2-.6.3-.9.7-1.4 1.1-3 1.1-4.6v-1.4c.4-3 .6-5.9.7-7v-6.9c0-1.4-.2-2.7-.6-3.9" fill="#D19F8C"/><path class="st59" d="M30.6 33.7s1.9 1 4.3 0" fill="none" stroke="#292664" stroke-linecap="round" stroke-linejoin="round" stroke-miterlimit="10"/><path class="st59" fill="none" stroke="#292664" stroke-linecap="round" stroke-linejoin="round" stroke-miterlimit="10" d="M31.4 36.9h2.7"/><path class="st59" d="M47.6 30.6c2.1.4 3.2-1.4 3.2-3s-1.1-3.1-2.7-3.1" fill="none" stroke="#292664" stroke-linecap="round" stroke-linejoin="round" stroke-miterlimit="10"/><path class="st59" d="M17.4 24.5c-1.6 0-2.7 1.4-2.7 3.1s1.4 3.2 3.2 2.9" fill="none" stroke="#292664" stroke-linecap="round" stroke-linejoin="round" stroke-miterlimit="10"/><path class="st59" d="M48.1 23.1l-.7 7.6c0 6.6-6 11.9-13.4 11.9h-2.5c-7.4 0-13.4-5.3-13.4-11.9l-.7-7.6" fill="none" stroke="#292664" stroke-linecap="round" stroke-linejoin="round" stroke-miterlimit="10"/><ellipse class="st90" cx="23.8" cy="28.9" rx="1.6" ry="1.5" fill="#99746A" opacity="0.55"/><ellipse class="st90" cx="41.7" cy="28.9" rx="1.6" ry="1.5" fill="#99746A" opacity="0.55"/><circle class="st66" cx="26" cy="24.8" r="1.4" fill="#292664"/><circle class="st66" cx="39.5" cy="24.8" r="1.4" fill="#292664"/><path class="st90" d="M27.9 20.4h-3.5c-.7 0-1.2-.6-1.2-1.2 0-.7.6-1.2 1.2-1.2h3.5c.7 0 1.2.6 1.2 1.2.1.7-.5 1.2-1.2 1.2z" fill="#99746A" opacity="0.55"/><path class="st90" d="M41.1 20.4h-3.5c-.7 0-1.2-.6-1.2-1.2 0-.7.6-1.2 1.2-1.2h3.5c.7 0 1.2.6 1.2 1.2 0 .7-.5 1.2-1.2 1.2z" fill="#99746A" opacity="0.55"/><path class="st59" d="M27.9 20.4h-3.5c-.7 0-1.2-.6-1.2-1.2 0-.7.6-1.2 1.2-1.2h3.5c.7 0 1.2.6 1.2 1.2.1.7-.5 1.2-1.2 1.2z" fill="none" stroke="#292664" stroke-linecap="round" stroke-linejoin="round" stroke-miterlimit="10"/><path class="st59" d="M41.1 20.4h-3.5c-.7 0-1.2-.6-1.2-1.2 0-.7.6-1.2 1.2-1.2h3.5c.7 0 1.2.6 1.2 1.2 0 .7-.5 1.2-1.2 1.2z" fill="none" stroke="#292664" stroke-linecap="round" stroke-linejoin="round" stroke-miterlimit="10"/><path class="st90" d="M17.4 20.3v-4.4c0-7.4 6-13.5 13.5-13.5h3.7c7.4 0 13.5 6 13.5 13.5v4.4S45.7 10 43.2 8.4c0 0-4.8 1.7-10.7 1.7h.4c-6 0-10.7-1.7-10.7-1.7-2.6 1.7-4.8 11.9-4.8 11.9z" fill="#99746A" opacity="0.55"/><path class="st59" fill="none" stroke="#292664" stroke-linecap="round" stroke-linejoin="round" stroke-miterlimit="10" d="M35.8 44.7v4.5l-3.1-2.5"/><path class="st59" fill="none" stroke="#292664" stroke-linecap="round" stroke-linejoin="round" stroke-miterlimit="10" d="M29.7 44.7v4.5l3.1-2.5"/><path class="st59" fill="none" stroke="#292664" stroke-linecap="round" stroke-linejoin="round" stroke-miterlimit="10" d="M34.8 48.5v13.6"/><path class="st59" fill="none" stroke="#292664" stroke-linecap="round" stroke-linejoin="round" stroke-miterlimit="10" d="M30.6 48.5v13.6"/><g><path class="st76" d="M62.1 52.3l-8-8.7v9.6c0 .9-.7 1.6-1.6 1.6-.9 0-1.6-.7-1.6-1.6v-6.6c0-4.6-3.8-8.4-8.4-8.4h-2.9 1.2c2.5 0 4.5 2 4.5 4.5v12.7c0 4 3.2 7.2 7.2 7.2s7.2-3.2 7.2-7.2v-.5c-.2-1.5 1-2.6 2.4-2.6" fill="#FFCF4B"/><path class="st59" d="M62.1 52.3l-8-8.7v9.6c0 .9-.7 1.6-1.6 1.6-.9 0-1.6-.7-1.6-1.6v-6.6c0-4.6-3.8-8.4-8.4-8.4h-2.9 1.2c2.5 0 4.5 2 4.5 4.5v12.7c0 4 3.2 7.2 7.2 7.2s7.2-3.2 7.2-7.2v-.5c-.2-1.5 1-2.6 2.4-2.6" fill="none" stroke="#292664" stroke-linecap="round" stroke-linejoin="round" stroke-miterlimit="10"/><path class="st59" fill="none" stroke="#292664" stroke-linecap="round" stroke-linejoin="round" stroke-miterlimit="10" d="M49.2 47h2.9"/><path class="st59" fill="none" stroke="#292664" stroke-linecap="round" stroke-linejoin="round" stroke-miterlimit="10" d="M49.2 49.2h2.9"/><path class="st59" fill="none" stroke="#292664" stroke-linecap="round" stroke-linejoin="round" stroke-miterlimit="10" d="M49.2 51.4h2.9"/></g><g><path class="st59" fill="none" stroke="#292664" stroke-linecap="round" stroke-linejoin="round" stroke-miterlimit="10" d="M1.9 32.4l7.6-3.2"/><path class="st59" fill="none" stroke="#292664" stroke-linecap="round" stroke-linejoin="round" stroke-miterlimit="10" d="M3 34.8l7.6-3.2"/><path class="st62" d="M19.1 48.7c-.4-.1-.7-.5-.5-.9.5-1.1.5-2.3 0-3.4-.9-2-3.4-3-6-2.6-.3.1-.6-.1-.7-.4l-2.5-5.9c-.1-.3 0-.7.3-.9.3-.1.5-.5.3-.9l-2.3-5.3c-.1-.3-.5-.5-.9-.3L3 29.7c-.3.1-.5.5-.3.9L5 35.9c.1.3.5.5.9.3.3-.1.7 0 .9.3l2.5 5.9c.1.3 0 .6-.2.8C7 45 6 47.5 6.9 49.5c.5 1.1 1.4 1.8 2.5 2.3.4.2.5.6.3 1-1.4 1.9-1.8 4.2-1 6.1 1.4 3.3 6.1 4.6 10.4 2.7 4.3-1.8 6.6-6.1 5.2-9.4-1-1.9-2.9-3.2-5.2-3.5z" fill="#95685C"/><ellipse transform="matrix(0.9185 -0.3955 0.3955 0.9185 -18.0469 9.2055)" class="st66" cx="13.3" cy="48.4" rx="2.8" ry="2.8" fill="#292664"/><path class="st59" d="M19.1 48.7c-.4-.1-.7-.5-.5-.9.5-1.1.5-2.3 0-3.4-.9-2-3.4-3-6-2.6-.3.1-.6-.1-.7-.4l-2.5-5.9c-.1-.3 0-.7.3-.9.3-.1.5-.5.3-.9l-2.3-5.3c-.1-.3-.5-.5-.9-.3L3 29.7c-.3.1-.5.5-.3.9L5 35.9c.1.3.5.5.9.3.3-.1.7 0 .9.3l2.5 5.9c.1.3 0 .6-.2.8C7 45 6 47.5 6.9 49.5c.5 1.1 1.4 1.8 2.5 2.3.4.2.5.6.3 1-1.4 1.9-1.8 4.2-1 6.1 1.4 3.3 6.1 4.6 10.4 2.7 4.3-1.8 6.6-6.1 5.2-9.4-1-1.9-2.9-3.2-5.2-3.5z" fill="none" stroke="#292664" stroke-linecap="round" stroke-linejoin="round" stroke-miterlimit="10"/><path class="st59" fill="none" stroke="#292664" stroke-linecap="round" stroke-linejoin="round" stroke-miterlimit="10" d="M14.9 58.8l4.8-2.1"/></g><path class="st59" fill="none" stroke="#292664" stroke-linecap="round" stroke-linejoin="round" stroke-miterlimit="10" d="M17.8 62.1h29.9"/><path class="st59" d="M17.4 23.1V16c0-7.4 6-13.5 13.5-13.5h3.7c7.4 0 13.5 6 13.5 13.5v7.1" fill="none" stroke="#292664" stroke-linecap="round" stroke-linejoin="round" stroke-miterlimit="10"/><path class="st90" d="M32.7 31c-1.1 0-2.1-.9-2.1-2.1v-5.2c0-1.1.9-2.1 2.1-2.1 1.1 0 2.1.9 2.1 2.1v5.2c0 1.1-.9 2.1-2.1 2.1z" fill="#99746A" opacity="0.55"/><metadata><rdf:RDF xmlns:rdf="http://www.w3.org/1999/02/22-rdf-syntax-ns#" xmlns:rdfs="http://www.w3.org/2000/01/rdf-schema#" xmlns:dc="http://purl.org/dc/elements/1.1/"><rdf:Description about="https://iconscout.com/legal#licenses" dc:publisher="Iconscout" dc:date="2017-09-25" dc:format="image/svg+xml" dc:language="en"><dc:creator><rdf:Bag><rdf:li>Thalita Torres</rdf:li></rdf:Bag></dc:creator></rdf:Description></rdf:RDF></metadata></svg>